<svg xmlns="http://www.w3.org/2000/svg" xmlns:xlink="http://www.w3.org/1999/xlink" viewBox="0 0 69 69"><defs><style>.cls-1{fill:url(#New_Gradient_Swatch_1);}.cls-2{fill:#fff;}</style><linearGradient id="New_Gradient_Swatch_1" y1="34.5" x2="69" y2="34.5" gradientUnits="userSpaceOnUse"><stop offset="0" stop-color="#30d7d7"/><stop offset="1" stop-color="#56e7a5"/></linearGradient></defs><title>Asset 4</title><g id="Layer_2" data-name="Layer 2"><g id="Layer_1-2" data-name="Layer 1"><rect class="cls-1" width="69" height="69" rx="16.935"/><path class="cls-2" d="M25.6011,47.2414q-1.4319-7.0041-2.93-14.008a2.5716,2.5716,0,0,0-2.7317-2.1456c-2.0605.1228-4.13.2457-6.1911.3781a4.9547,4.9547,0,0,1-.8318.0756c-1.8525-.1418-2.93,1.55-2.552,3.3271.6427,3.0436,1.276,6.0966,1.9188,9.15q.6946,3.3177,1.3894,6.6353a2.57,2.57,0,0,0,3.7808,2.0795c2.1362-.8129,4.2629-1.6163,6.3991-2.42A2.63,2.63,0,0,0,25.6011,47.2414Zm-6.7393,2.0038a2.3724,2.3724,0,0,1-2.3252-2.382,2.3585,2.3585,0,1,1,4.7165.0568A2.3743,2.3743,0,0,1,18.8618,49.2452ZM56.2352,35.776a3.6814,3.6814,0,0,0,2.155-4.9718A3.93,3.93,0,0,0,55.583,28.63c-2.93-.709-5.87-1.3328-8.8093-1.985a13.6235,13.6235,0,0,1-2.06-.4915,1.1829,1.1829,0,0,1-.5294-2.0227,10.1932,10.1932,0,0,1,.9075-1.0114c.9168-.9074,1.862-1.7864,2.7789-2.6938a13.8674,13.8674,0,0,0,3.7052-5.8981,7.6633,7.6633,0,0,0-.4821-5.7752A2.159,2.159,0,0,0,49.09,7.5616a1.8072,1.8072,0,0,0-1.6447,1.1626,7.4775,7.4775,0,0,0-.4631,1.0587,9.9712,9.9712,0,0,1-3.27,4.48,32.8751,32.8751,0,0,1-6.3045,3.63,9.0333,9.0333,0,0,0-3.2232,2.4292c-1.38,1.8148-2.6087,3.743-3.97,5.5578a33.1311,33.1311,0,0,1-3.3176,3.9415,18.2154,18.2154,0,0,1-3.1193,2.0039q1.6872,8.28,3.4311,16.8813c2.1079-.6522,3.9321.0379,5.8036.6711,2.6088.8791,5.227,1.7392,7.9019,2.382a42.5748,42.5748,0,0,0,6.56.9735,3.2865,3.2865,0,0,0,3.5918-2.9113,10.7264,10.7264,0,0,0,.0095-1.6541A3.65,3.65,0,0,0,54.4488,42.61a3.6449,3.6449,0,0,0,3.28-2.6843A3.7031,3.7031,0,0,0,56.2352,35.776Z"/></g></g></svg>