<svg xmlns="http://www.w3.org/2000/svg" xmlns:xlink="http://www.w3.org/1999/xlink" viewBox="0 0 450.7116 81.6262"><defs><style>.cls-1{fill:#32323b;}.cls-2{fill:url(#New_Gradient_Swatch_1);}.cls-3{fill:url(#New_Gradient_Swatch_1-2);}.cls-4{fill:url(#New_Gradient_Swatch_1-3);}.cls-5{fill:none;stroke-miterlimit:10;stroke-width:17px;stroke:url(#New_Gradient_Swatch_1-4);}</style><linearGradient id="New_Gradient_Swatch_1" x1="60.1314" y1="39.6926" x2="120.0882" y2="39.6926" gradientUnits="userSpaceOnUse"><stop offset="0" stop-color="#30d7d7"/><stop offset="1" stop-color="#56e7a5"/></linearGradient><linearGradient id="New_Gradient_Swatch_1-2" x1="94.2735" y1="44.9048" x2="104.2663" y2="44.9048" xlink:href="#New_Gradient_Swatch_1"/><linearGradient id="New_Gradient_Swatch_1-3" x1="75.9533" y1="44.9048" x2="85.9461" y2="44.9048" xlink:href="#New_Gradient_Swatch_1"/><linearGradient id="New_Gradient_Swatch_1-4" x1="402.306" y1="67.4287" x2="481.8755" y2="67.4287" gradientTransform="matrix(-0.2087, -0.6493, -0.6935, 0.223, 362.8864, 319.1083)" xlink:href="#New_Gradient_Swatch_1"/></defs><title>Asset 1</title><g id="Layer_2" data-name="Layer 2"><g id="Layer_1-2" data-name="Layer 1"><path class="cls-1" d="M0,79.0572V15.2082H23.8175q12.7965,0,19.4684,4.5167t6.6716,13.1119A14.7718,14.7718,0,0,1,47.5894,41.3a13.7371,13.7371,0,0,1-6.9676,5.1746A13.3184,13.3184,0,0,1,51.3692,60.1568q0,9.3846-6.1707,14.0985T26.9142,79.0572ZM15.9846,41.8265h8.3338q5.2367-.0433,7.4686-1.8472a6.4378,6.4378,0,0,0,2.2314-5.3218q0-4.0465-2.4136-5.8277t-7.7873-1.7815H15.9846Zm0,10.0861V67.217H26.4588q4.3262,0,6.6488-1.9075A6.5616,6.5616,0,0,0,35.43,59.9376q0-7.9811-8.2428-8.025Z"/><path class="cls-1" d="M180.6725,27.0921h-19.901V79.0572H144.7869V27.0921H125.25V15.2082h55.4223Z"/><path class="cls-1" d="M326.9579,79.0572H311.0644l-23.4987-39.73v39.73H271.5811V15.2082h15.9846l23.4532,39.73v-39.73h15.939Z"/><path class="cls-1" d="M394.0181,48.4482A36.4771,36.4771,0,0,1,390.42,64.9806a25.9551,25.9551,0,0,1-10.2237,11.0727A29.31,29.31,0,0,1,365.1,79.9342a29.7363,29.7363,0,0,1-15.0282-3.7494,25.9539,25.9539,0,0,1-10.2238-10.7219A35.455,35.455,0,0,1,336,49.4568V45.8609a36.63,36.63,0,0,1,3.5749-16.5542A25.8929,25.8929,0,0,1,349.8214,18.234a31.347,31.347,0,0,1,30.2159-.0439,26.3809,26.3809,0,0,1,10.2693,10.985,35.606,35.606,0,0,1,3.7115,16.335ZM377.76,45.7732q0-9.5156-3.3017-14.4493a10.6951,10.6951,0,0,0-9.45-4.9334q-12.0225,0-12.7057,17.3655l-.0455,4.6922q0,9.3846,3.2334,14.4275a10.6732,10.6732,0,0,0,9.6089,5.043,10.5441,10.5441,0,0,0,9.3357-4.9553q3.279-4.9551,3.3245-14.2521Z"/><path class="cls-1" d="M450.611,27.31l-19.9-.1563-.44,51.9633-15.9841-.1255.44-51.9633-19.536-.1534.1006-11.8835,55.42.4351Z"/><path class="cls-2" d="M101.01,15.2356H92.1916V9.0371A4.8025,4.8025,0,0,0,94.79,4.8112a5,5,0,0,0-9.9928,0A4.82,4.82,0,0,0,88.028,9.31v5.9259H79.201c-10.5341,0-19.07,8.2191-19.07,18.3628v27.424c0,10.1437,8.5355,18.3629,19.07,18.3629H101.01c10.5341,0,19.0779-8.2192,19.0779-18.3629V33.5984C120.0882,23.4547,111.5444,15.2356,101.01,15.2356Zm11.5833,32.171a5.6331,5.6331,0,0,1-5.7375,5.5169H73.3552a5.6258,5.6258,0,0,1-5.7292-5.5169V42.403a5.6257,5.6257,0,0,1,5.7292-5.5169h33.5009a5.633,5.633,0,0,1,5.7375,5.5169Z"/><ellipse class="cls-3" cx="99.2699" cy="44.9048" rx="4.9964" ry="4.8112"/><ellipse class="cls-4" cx="80.9497" cy="44.9048" rx="4.9964" ry="4.8112"/><line class="cls-5" x1="242.6337" y1="17.0775" x2="205.0435" y2="77.1155"/></g></g></svg>