<svg xmlns="http://www.w3.org/2000/svg" xmlns:xlink="http://www.w3.org/1999/xlink" viewBox="0 0 236.8358 40.4258"><defs><style>.cls-1{fill:#32323b;}.cls-2{fill:url(#New_Gradient_Swatch_1);}.cls-3{fill:url(#New_Gradient_Swatch_1-2);}.cls-4{fill:url(#New_Gradient_Swatch_1-3);}</style><linearGradient id="New_Gradient_Swatch_1" x1="30.4107" y1="20.0741" x2="60.7332" y2="20.0741" gradientUnits="userSpaceOnUse"><stop offset="0" stop-color="#30d7d7"/><stop offset="1" stop-color="#56e7a5"/></linearGradient><linearGradient id="New_Gradient_Swatch_1-2" x1="47.6777" y1="22.7101" x2="52.7314" y2="22.7101" xlink:href="#New_Gradient_Swatch_1"/><linearGradient id="New_Gradient_Swatch_1-3" x1="38.4125" y1="22.7101" x2="43.4662" y2="22.7101" xlink:href="#New_Gradient_Swatch_1"/></defs><title>Asset 2</title><g id="Layer_2" data-name="Layer 2"><g id="Layer_1-2" data-name="Layer 1"><path class="cls-1" d="M0,39.9822V7.6913H12.0454q6.4718,0,9.8459,2.2844a7.511,7.511,0,0,1,3.3741,6.6311,7.47,7.47,0,0,1-1.1976,4.28,6.9468,6.9468,0,0,1-3.5238,2.617,6.7357,6.7357,0,0,1,5.4354,6.9195q0,4.7461-3.1208,7.13t-9.2471,2.4284ZM8.084,21.1533h4.2147a6.1594,6.1594,0,0,0,3.7772-.9343,3.2558,3.2558,0,0,0,1.1285-2.6914A3.42,3.42,0,0,0,15.9838,14.58a6.73,6.73,0,0,0-3.9384-.9009H8.084Zm0,5.1009v7.74h5.2972a5.1723,5.1723,0,0,0,3.3626-.9647,3.3184,3.3184,0,0,0,1.1746-2.7168q0-4.0362-4.1687-4.0585Z"/><path class="cls-1" d="M91.373,13.7015H81.3083V39.9822h-8.084V13.7015h-9.88v-6.01H91.373Z"/><path class="cls-1" d="M174.2488,39.9822h-8.038L154.3267,19.8891V39.9822h-8.0841V7.6913h8.0841l11.8611,20.0931V7.6913h8.061Z"/><path class="cls-1" d="M208.1637,24.5021a18.4487,18.4487,0,0,1-1.82,8.3611,13.1268,13.1268,0,0,1-5.1705,5.6,14.8243,14.8243,0,0,1-7.6349,1.9627,15.04,15.04,0,0,1-7.6-1.8962,13.1254,13.1254,0,0,1-5.1705-5.4225,17.9307,17.9307,0,0,1-1.9462-8.0949V23.1936a18.5244,18.5244,0,0,1,1.808-8.3721,13.0953,13.0953,0,0,1,5.182-5.6,15.8536,15.8536,0,0,1,15.2813-.0222,13.341,13.341,0,0,1,5.1936,5.5556,18.0063,18.0063,0,0,1,1.8771,8.2612Zm-8.2222-1.3528q0-4.8125-1.67-7.3076a5.4089,5.4089,0,0,0-4.779-2.495q-6.08,0-6.4258,8.7824l-.023,2.373q0,4.7462,1.6352,7.2965a5.3979,5.3979,0,0,0,4.86,2.55A5.3328,5.3328,0,0,0,198.26,31.843q1.6583-2.506,1.6813-7.2078Z"/><path class="cls-1" d="M236.7849,13.8119l-10.0644-.079-.2225,26.28-8.0837-.0635.2225-26.28-9.88-.0776.0509-6.01,28.0283.22Z"/><path class="cls-2" d="M51.0848,7.7052h-4.46V4.57a2.4286,2.4286,0,0,0,1.314-2.1372,2.5287,2.5287,0,0,0-5.0537,0,2.4376,2.4376,0,0,0,1.634,2.2751V7.7052H40.055a9.4692,9.4692,0,0,0-9.6443,9.2868V30.8614a9.4692,9.4692,0,0,0,9.6443,9.2868h11.03a9.4728,9.4728,0,0,0,9.6484-9.2868V16.992A9.4728,9.4728,0,0,0,51.0848,7.7052Zm5.8581,16.27a2.8488,2.8488,0,0,1-2.9017,2.79H37.0985a2.8451,2.8451,0,0,1-2.8974-2.79V21.4448a2.8451,2.8451,0,0,1,2.8974-2.79H54.0412a2.8488,2.8488,0,0,1,2.9017,2.79Z"/><ellipse class="cls-3" cx="50.2046" cy="22.7101" rx="2.5269" ry="2.4332"/><ellipse class="cls-4" cx="40.9394" cy="22.7101" rx="2.5269" ry="2.4332"/><path class="cls-1" d="M115.1294,31.0217a10.603,10.603,0,0,1-.9754,4.6548,7.2049,7.2049,0,0,1-2.772,3.1174,7.7145,7.7145,0,0,1-4.0929,1.0929,7.83,7.83,0,0,1-4.0744-1.0555,7.2,7.2,0,0,1-2.772-3.019A10.294,10.294,0,0,1,99.4,31.3057V30.2933a10.6508,10.6508,0,0,1,.9691-4.6611,7.1946,7.1946,0,0,1,2.7783-3.1175,8.2237,8.2237,0,0,1,8.192-.0123,7.3205,7.3205,0,0,1,2.7841,3.093,10.3412,10.3412,0,0,1,1.0064,4.5991Zm-4.4078-.7531a7.56,7.56,0,0,0-.8953-4.0685,2.8714,2.8714,0,0,0-2.5619-1.3888q-3.26,0-3.4447,4.8893l-.0124,1.3211a7.7729,7.7729,0,0,0,.8766,4.0622,2.8667,2.8667,0,0,0,2.6052,1.42,2.832,2.832,0,0,0,2.5311-1.3952,7.5629,7.5629,0,0,0,.9014-4.0127Z"/><path class="cls-1" d="M124.8524,33.2812h-2.346V39.64h-4.3337V21.6628h7.0748a7.8967,7.8967,0,0,1,5,1.4185,4.8061,4.8061,0,0,1,1.8027,4.0084,5.8382,5.8382,0,0,1-.7592,3.1079,5.39,5.39,0,0,1-2.3769,1.9982l3.7534,7.2586V39.64h-4.6424Zm-2.346-3.3336h2.7411a2.46,2.46,0,0,0,1.858-.65,2.512,2.512,0,0,0,.6237-1.8136,2.541,2.541,0,0,0-.63-1.8253,2.437,2.437,0,0,0-1.852-.6624h-2.7411Z"/></g></g></svg>