<svg xmlns="http://www.w3.org/2000/svg" xmlns:xlink="http://www.w3.org/1999/xlink" viewBox="0 0 35.5374 48.8639"><defs><style>.cls-1{fill:url(#New_Gradient_Swatch_1);}.cls-2{fill:url(#New_Gradient_Swatch_1-2);}.cls-3{fill:url(#New_Gradient_Swatch_1-3);}</style><linearGradient id="New_Gradient_Swatch_1" y1="24.432" x2="35.5374" y2="24.432" gradientUnits="userSpaceOnUse"><stop offset="0" stop-color="#30d7d7"/><stop offset="1" stop-color="#56e7a5"/></linearGradient><linearGradient id="New_Gradient_Swatch_1-2" x1="20.2366" y1="27.6402" x2="26.1595" y2="27.6402" xlink:href="#New_Gradient_Swatch_1"/><linearGradient id="New_Gradient_Swatch_1-3" x1="9.3779" y1="27.6402" x2="15.3008" y2="27.6402" xlink:href="#New_Gradient_Swatch_1"/></defs><title>Asset 5</title><g id="Layer_2" data-name="Layer 2"><g id="Layer_1-2" data-name="Layer 1"><path class="cls-1" d="M24.23,9.3779h-5.227V5.5626a2.9661,2.9661,0,1,0-2.4678.1678V9.3779H11.3029A11.3012,11.3012,0,0,0,0,20.6808v16.88A11.3011,11.3011,0,0,0,11.3029,48.8639H24.23A11.3053,11.3053,0,0,0,35.5374,37.5611v-16.88A11.3054,11.3054,0,0,0,24.23,9.3779ZM31.0952,29.18a3.4,3.4,0,0,1-3.4007,3.3958H7.838A3.3957,3.3957,0,0,1,4.4422,29.18V26.1A3.3955,3.3955,0,0,1,7.838,22.7045H27.6945A3.4,3.4,0,0,1,31.0952,26.1Z"/><circle class="cls-2" cx="23.198" cy="27.6402" r="2.9615"/><circle class="cls-3" cx="12.3394" cy="27.6402" r="2.9615"/></g></g></svg>