<svg xmlns="http://www.w3.org/2000/svg" xmlns:xlink="http://www.w3.org/1999/xlink" viewBox="0 0 70.9297 87.7602"><defs><style>.cls-1{fill:url(#New_Gradient_Swatch_1);}.cls-2{fill:url(#New_Gradient_Swatch_1-2);}.cls-3{fill:url(#New_Gradient_Swatch_1-3);}.cls-4{fill:url(#New_Gradient_Swatch_1-4);}</style><linearGradient id="New_Gradient_Swatch_1" x1="3.1918" y1="81.4787" x2="67.9696" y2="81.4787" gradientUnits="userSpaceOnUse"><stop offset="0" stop-color="#30d7d7"/><stop offset="1" stop-color="#56e7a5"/></linearGradient><linearGradient id="New_Gradient_Swatch_1-2" x1="9.6656" y1="35.6356" x2="61.4918" y2="35.6356" xlink:href="#New_Gradient_Swatch_1"/><linearGradient id="New_Gradient_Swatch_1-3" x1="63.9926" y1="47.4213" x2="70.9297" y2="47.4213" xlink:href="#New_Gradient_Swatch_1"/><linearGradient id="New_Gradient_Swatch_1-4" x1="0" y1="47.4213" x2="6.9371" y2="47.4213" xlink:href="#New_Gradient_Swatch_1"/></defs><title>Asset 3</title><g id="Layer_2" data-name="Layer 2"><g id="Layer_1-2" data-name="Layer 1"><path class="cls-1" d="M67.97,77.1248v8.7077A1.9285,1.9285,0,0,1,66.0419,87.76H5.1155a1.9252,1.9252,0,0,1-1.9237-1.9277V77.1248a1.9251,1.9251,0,0,1,1.9237-1.9276H66.0419A1.9285,1.9285,0,0,1,67.97,77.1248Z"/><path class="cls-2" d="M61.4879,38.9727A22.6636,22.6636,0,0,0,38.8235,16.3083h-.7891V10.0465a5.3146,5.3146,0,1,0-4.9074-.0315v6.2933h-.7931A22.6669,22.6669,0,0,0,9.6656,38.9727V71.2713H61.4918ZM18.0593,48.1083A5.3157,5.3157,0,1,1,23.375,53.424,5.3147,5.3147,0,0,1,18.0593,48.1083ZM47.1622,66.9H23.9992V61.1093a2.4378,2.4378,0,0,1,2.438-2.438H44.72a2.4413,2.4413,0,0,1,2.442,2.438Zm.62-13.476a5.3157,5.3157,0,1,1,5.3158-5.3157A5.3147,5.3147,0,0,1,47.7824,53.424Z"/><path class="cls-3" d="M70.93,42.7455V52.097a4.06,4.06,0,0,1-4.0594,4.06H63.9926v-17.47H66.87A4.06,4.06,0,0,1,70.93,42.7455Z"/><path class="cls-4" d="M6.9371,38.6861v17.47H4.0594A4.06,4.06,0,0,1,0,52.097V42.7455a4.06,4.06,0,0,1,4.0594-4.0594Z"/></g></g></svg>